<svg width="50" height="50" viewBox="0 0 50 50" fill="none" xmlns="http://www.w3.org/2000/svg">
<path d="M33.9609 6.25H27.25C26.625 6.25 26.0234 6.54297 25.5625 7.07031L17.8828 15.8594C17.875 15.8691 17.8672 15.8887 17.8594 15.8984C16.5625 17.4219 16.5859 19.8535 17.6953 21.3672C18.6875 22.7246 20.7734 23.0859 22.0781 21.6309C22.0859 21.6211 22.1016 21.6211 22.1094 21.6113L28.3516 14.4629C28.8594 13.8867 29.6562 13.9258 30.1172 14.5605C30.5859 15.1953 30.5469 16.1816 30.0391 16.7676L28 19.1016L39.375 30.6445C39.6016 30.8789 39.8047 31.1328 39.9922 31.3965V12.5L35.7266 7.16797C35.2656 6.58203 34.625 6.25 33.9609 6.25V6.25ZM42.5 12.5195V34.3848C42.5 36.1133 43.6172 37.5098 45 37.5098H50V12.5195H42.5ZM46.25 34.3848C45.5625 34.3848 45 33.6816 45 32.8223C45 31.9629 45.5625 31.2598 46.25 31.2598C46.9375 31.2598 47.5 31.9629 47.5 32.8223C47.5 33.6816 46.9375 34.3848 46.25 34.3848ZM0 37.5H5C6.38281 37.5 7.5 36.1035 7.5 34.375V12.5195H0V37.5ZM3.75 31.2598C4.4375 31.2598 5 31.9629 5 32.8223C5 33.6816 4.4375 34.3848 3.75 34.3848C3.0625 34.3848 2.5 33.6816 2.5 32.8223C2.5 31.9531 3.0625 31.2598 3.75 31.2598ZM37.8047 33.0762L26.1406 21.2402L23.7969 23.9258C21.4766 26.5723 17.9219 26.3184 15.8516 23.4961C13.75 20.625 13.9141 16.1816 16.1953 13.5645L22.5859 6.25H16.0391C15.375 6.25 14.7422 6.58203 14.2734 7.16797L10 12.5V34.3652H11.4297L18.5 42.3633C20.6406 44.541 23.7891 44.1309 25.5312 41.4551L25.5469 41.4355L26.9453 42.9492C28.1875 44.2187 30.0234 43.9746 31.0313 42.4219L33.4844 38.6523L33.9062 39.082C34.9766 40.166 36.5547 39.9707 37.4219 38.623L38.1641 37.4805C39.0391 36.1328 38.875 34.1699 37.8047 33.0762V33.0762Z" fill="#23D997"/>
</svg>
