<svg width="700" height="565" viewBox="0 0 700 565" fill="none" xmlns="http://www.w3.org/2000/svg">
<path d="M294.074 325.862C347.257 325.862 390.37 278.817 390.37 220.783C390.37 162.75 347.257 115.705 294.074 115.705C240.891 115.705 197.778 162.75 197.778 220.783C197.778 278.817 240.891 325.862 294.074 325.862Z" fill="#23D997"/>
<path d="M306.667 308.079C253.16 308.079 209.63 260.579 209.63 202.192C209.63 143.806 253.16 96.3054 306.667 96.3054C360.173 96.3054 403.704 143.806 403.704 202.192C403.704 260.579 360.173 308.079 306.667 308.079ZM306.667 97.922C287.767 97.922 269.293 104.038 253.579 115.494C237.864 126.952 225.617 143.237 218.384 162.29C211.152 181.343 209.26 202.308 212.947 222.535C216.634 242.761 225.735 261.34 239.099 275.923C252.462 290.505 269.488 300.436 288.024 304.46C306.561 308.483 325.773 306.418 343.234 298.526C360.695 290.634 375.619 277.269 386.119 260.122C396.618 242.975 402.222 222.815 402.222 202.192C402.193 174.548 392.117 148.045 374.203 128.497C356.289 108.949 332.001 97.9535 306.667 97.922Z" fill="#3F3D56"/>
<path d="M600.741 356.459H0V0H600.741V356.459ZM1.48148 354.843H599.259V1.6166H1.48148V354.843Z" fill="#3F3D56"/>
<path d="M151.852 28.2905H20.0001V42.8399H151.852V28.2905Z" fill="#F2F2F2"/>
<path d="M349.63 28.2905H217.778V42.8399H349.63V28.2905Z" fill="#F2F2F2"/>
<path d="M547.407 28.2905H415.556V42.8399H547.407V28.2905Z" fill="#F2F2F2"/>
<path d="M160.741 36.3734H27.4074V20.2074H160.741V36.3734ZM28.8889 34.7568H159.259V21.824H28.8889V34.7568Z" fill="#3F3D56"/>
<path d="M358.518 36.3734H225.185V20.2074H358.518V36.3734ZM226.667 34.7568H357.037V21.824H226.667V34.7568Z" fill="#3F3D56"/>
<path d="M556.296 36.3734H422.963V20.2074H556.296V36.3734ZM424.444 34.7568H554.815V21.824H424.444V34.7568Z" fill="#3F3D56"/>
<path d="M699.317 551.855H86.277V553.92H699.317V551.855Z" fill="#2F2E41"/>
<path d="M291.481 390.812L338.148 292.2L350.741 300.283L297.407 394.853L291.481 390.812Z" fill="#3F3D56"/>
<path d="M264.444 412.232C264.444 412.232 273.046 419.607 274.022 403.828C274.147 401.322 274.747 398.871 275.786 396.633C276.825 394.394 278.279 392.416 280.056 390.822C283.951 387.427 289.556 385.104 296.296 389.599C302.296 393.601 303.647 399.402 303.316 404.573C303.021 408.278 301.909 411.849 300.073 414.982C298.236 418.115 295.732 420.716 292.773 422.562C286.087 426.893 275.531 430.153 264.444 419.506C264.444 419.506 257.778 411.423 264.444 412.232Z" fill="#23D997"/>
<path d="M346.961 178.668C356.888 178.668 364.936 169.886 364.936 159.053C364.936 148.221 356.888 139.439 346.961 139.439C337.033 139.439 328.986 148.221 328.986 159.053C328.986 169.886 337.033 178.668 346.961 178.668Z" fill="#FFB8B8"/>
<path d="M337.5 168.344C337.5 168.344 342.23 195.184 340.339 200.346C338.446 205.508 366.827 198.282 366.827 198.282C366.827 198.282 361.151 171.441 362.098 165.247C363.044 159.053 337.5 168.344 337.5 168.344Z" fill="#FFB8B8"/>
<path d="M306.281 261.254L308.173 289.126L317.563 332.901L320.471 344.873L325.202 326.291L320.471 283.965L318.864 264.91L306.281 261.254Z" fill="#FFB8B8"/>
<path d="M405.616 257.124V286.03C405.616 286.03 402.778 323.194 397.101 332.485C391.425 341.776 389.533 295.321 389.533 295.321L393.981 261.254L405.616 257.124Z" fill="#FFB8B8"/>
<path d="M321.417 346.938C321.417 346.938 316.687 353.131 320.471 416.104C324.256 479.076 318.579 524.499 330.878 524.499C330.878 524.499 327.093 537.919 337.5 538.951C347.907 539.983 352.637 541.015 353.583 537.919C354.529 534.821 356.421 520.369 353.583 520.369C353.583 520.369 353.583 524.499 355.475 507.981C357.367 491.464 357.367 413.007 362.098 402.683L377.234 440.879C377.234 440.879 377.234 458.429 380.073 466.688C382.91 474.947 387.641 522.433 387.641 522.433L386.695 529.66C386.695 529.66 409.4 533.789 410.346 529.66C411.292 525.531 411.292 519.337 410.346 517.272C409.4 515.207 409.4 515.207 411.292 511.078C413.184 506.949 413.184 503.852 412.238 500.755C411.292 497.658 411.292 430.556 411.292 430.556C411.292 430.556 409.4 349.002 398.047 344.873C386.695 340.744 321.417 346.938 321.417 346.938Z" fill="#2F2E41"/>
<path d="M333.716 530.693L326.147 545.145C326.147 545.145 314.322 540.5 316.687 552.371C337.027 553.92 351.218 551.855 351.218 551.855C351.218 551.855 355.948 553.92 356.894 550.822C357.84 547.726 354.529 536.887 351.691 536.887C348.853 536.887 333.716 530.693 333.716 530.693Z" fill="#2F2E41"/>
<path d="M388.587 526.563C388.587 526.563 381.019 545.145 383.856 546.177C386.695 547.209 412.238 551.339 414.13 552.371C416.022 553.403 425.483 554.436 426.429 548.242C427.375 542.048 421.699 539.983 421.699 539.983C421.699 539.983 411.292 537.919 408.454 527.595C405.616 517.272 388.587 526.563 388.587 526.563Z" fill="#2F2E41"/>
<path d="M368.72 195.184C368.72 195.184 343.176 190.023 337.5 195.184C331.824 200.346 308.173 210.67 308.173 215.832C308.173 220.993 320.471 271.577 320.471 271.577C320.471 271.577 313.849 347.97 320.471 350.034C327.093 352.099 338.446 345.905 351.691 353.131C364.936 360.358 402.778 346.937 402.778 346.937C402.778 346.937 388.587 280.868 392.371 268.48C396.156 256.092 398.993 213.766 398.993 213.766C398.993 213.766 382.91 195.184 368.72 195.184Z" fill="#8985A8"/>
<path d="M314.795 212.734L308.173 214.799C308.173 214.799 293.982 263.318 299.659 265.384C305.335 267.448 321.417 271.577 323.31 271.577C325.201 271.577 314.795 212.734 314.795 212.734Z" fill="#8985A8"/>
<path d="M383.856 207.572L398.993 213.766C398.993 213.766 418.861 254.028 414.13 259.19C409.4 264.35 388.587 269.512 388.587 269.512L383.856 207.572Z" fill="#8985A8"/>
<path d="M346.415 134.826C344.92 134.531 343.384 134.605 341.919 135.043C340.746 135.61 339.666 136.382 338.723 137.331C337.011 138.819 335.183 140.141 333.259 141.281C331.726 142.188 330.079 143.029 329.008 144.533C328.502 145.292 328.098 146.126 327.808 147.011C325.964 152.148 325.469 157.745 326.377 163.173C326.479 163.945 326.692 164.693 327.007 165.392C327.991 167.369 330.162 168.149 331.992 169.185C335.465 171.152 338.099 174.465 340.947 177.393C342.005 178.546 343.194 179.546 344.485 180.368C348.55 182.786 353.517 181.997 358.079 181.143C358.402 181.142 358.722 181.072 359.021 180.935C359.319 180.798 359.59 180.6 359.817 180.348C360.044 180.098 360.224 179.8 360.345 179.474C360.467 179.146 360.527 178.796 360.524 178.444L364.125 160.77C364.779 158.151 365.089 155.445 365.048 152.732C364.797 148.441 362.669 142.498 359.783 139.451C356.421 135.899 350.81 135.334 346.415 134.826Z" fill="#2F2E41"/>
<path d="M272.593 552.067C286.911 552.067 298.519 551.344 298.519 550.451C298.519 549.557 286.911 548.834 272.593 548.834C258.274 548.834 246.667 549.557 246.667 550.451C246.667 551.344 258.274 552.067 272.593 552.067Z" fill="#23D997"/>
<path d="M266.667 555.3C280.985 555.3 292.593 554.577 292.593 553.684C292.593 552.791 280.985 552.067 266.667 552.067C252.348 552.067 240.741 552.791 240.741 553.684C240.741 554.577 252.348 555.3 266.667 555.3Z" fill="#23D997"/>
<path d="M240.741 544.862C248.513 544.862 254.815 544.469 254.815 543.984C254.815 543.499 248.513 543.106 240.741 543.106C232.968 543.106 226.667 543.499 226.667 543.984C226.667 544.469 232.968 544.862 240.741 544.862Z" fill="#23D997"/>
<path d="M291.111 564.261C298.884 564.261 305.185 563.868 305.185 563.383C305.185 562.898 298.884 562.506 291.111 562.506C283.339 562.506 277.037 562.898 277.037 563.383C277.037 563.868 283.339 564.261 291.111 564.261Z" fill="#23D997"/>
</svg>
