<svg width="50" height="50" viewBox="0 0 50 50" fill="none" xmlns="http://www.w3.org/2000/svg">
<path d="M7.5 21.875C10.2578 21.875 12.5 19.0723 12.5 15.625C12.5 12.1777 10.2578 9.375 7.5 9.375C4.74219 9.375 2.5 12.1777 2.5 15.625C2.5 19.0723 4.74219 21.875 7.5 21.875ZM42.5 21.875C45.2578 21.875 47.5 19.0723 47.5 15.625C47.5 12.1777 45.2578 9.375 42.5 9.375C39.7422 9.375 37.5 12.1777 37.5 15.625C37.5 19.0723 39.7422 21.875 42.5 21.875ZM45 25H40C38.625 25 37.3828 25.6934 36.4766 26.8164C39.625 28.9746 41.8594 32.8711 42.3438 37.5H47.5C48.8828 37.5 50 36.1035 50 34.375V31.25C50 27.8027 47.7578 25 45 25ZM25 25C29.8359 25 33.75 20.1074 33.75 14.0625C33.75 8.01758 29.8359 3.125 25 3.125C20.1641 3.125 16.25 8.01758 16.25 14.0625C16.25 20.1074 20.1641 25 25 25ZM31 28.125H30.3516C28.7266 29.1016 26.9219 29.6875 25 29.6875C23.0781 29.6875 21.2812 29.1016 19.6484 28.125H19C14.0312 28.125 10 33.1641 10 39.375V42.1875C10 44.7754 11.6797 46.875 13.75 46.875H36.25C38.3203 46.875 40 44.7754 40 42.1875V39.375C40 33.1641 35.9687 28.125 31 28.125ZM13.5234 26.8164C12.6172 25.6934 11.375 25 10 25H5C2.24219 25 0 27.8027 0 31.25V34.375C0 36.1035 1.11719 37.5 2.5 37.5H7.64844C8.14063 32.8711 10.375 28.9746 13.5234 26.8164Z" fill="#23D997"/>
</svg>
