<svg width="50" height="50" viewBox="0 0 50 50" fill="none" xmlns="http://www.w3.org/2000/svg">
<path d="M40.8398 17.3047C40.3125 17.1289 39.7852 16.9629 39.2578 16.8066C39.3457 16.4453 39.4238 16.084 39.502 15.7227C40.7031 9.90234 39.9121 5.22461 37.2461 3.68164C34.6777 2.20703 30.4883 3.74023 26.25 7.43164C25.8301 7.79297 25.4199 8.17383 25.0293 8.55469C24.7656 8.30078 24.4922 8.04688 24.2188 7.80273C19.7754 3.85742 15.3223 2.19727 12.6563 3.75C10.0977 5.23437 9.33594 9.63867 10.4102 15.1465C10.5176 15.6934 10.6348 16.2305 10.7715 16.7773C10.1465 16.9531 9.53125 17.1484 8.95508 17.3535C3.74023 19.1602 0 22.0117 0 24.9609C0 28.0078 3.98438 31.0645 9.4043 32.9199C9.84375 33.0664 10.2832 33.2129 10.7324 33.3398C10.5859 33.9258 10.459 34.502 10.3418 35.0977C9.31641 40.5176 10.1172 44.8145 12.6758 46.2891C15.3125 47.8125 19.7461 46.25 24.0625 42.4707C24.4043 42.168 24.7461 41.8555 25.0879 41.5234C25.5176 41.9434 25.9668 42.3438 26.416 42.7344C30.5957 46.3281 34.7266 47.7832 37.2754 46.3086C39.9121 44.7852 40.7715 40.166 39.6582 34.541C39.5703 34.1113 39.4727 33.6719 39.3652 33.2227C39.6777 33.1348 39.9805 33.0371 40.2832 32.9395C45.918 31.0742 50 28.0566 50 24.9609C50 22.002 46.1523 19.1309 40.8398 17.3047V17.3047ZM27.627 9.01367C31.2598 5.84961 34.6484 4.60937 36.1914 5.49805C37.8418 6.44531 38.4766 10.2734 37.4414 15.3027C37.373 15.6348 37.3047 15.957 37.2168 16.2793C35.0488 15.791 32.8516 15.4395 30.6445 15.2441C29.375 13.4277 27.9883 11.6895 26.4844 10.0586C26.8652 9.69727 27.2363 9.35547 27.627 9.01367V9.01367ZM16.3281 30.0293C16.8262 30.8789 17.334 31.7285 17.8711 32.5586C16.3477 32.3926 14.834 32.1484 13.3398 31.8262C13.7695 30.4199 14.3066 28.9648 14.9316 27.4805C15.3809 28.3398 15.8398 29.1895 16.3281 30.0293V30.0293ZM13.3691 18.2812C14.7754 17.9687 16.2695 17.7148 17.8223 17.5195C17.3047 18.3301 16.7969 19.1602 16.3184 20C15.8398 20.8301 15.3711 21.6797 14.9316 22.5391C14.3164 21.084 13.7988 19.6582 13.3691 18.2812ZM16.0449 25.0098C16.6895 23.6621 17.3926 22.3438 18.1348 21.0449C18.877 19.7461 19.6777 18.4863 20.5176 17.2461C21.9824 17.1387 23.4766 17.0801 25 17.0801C26.5234 17.0801 28.0273 17.1387 29.4824 17.2461C30.3125 18.4766 31.1035 19.7363 31.8555 21.0254C32.6074 22.3145 33.3105 23.6328 33.9746 24.9707C33.3203 26.3184 32.6172 27.6465 31.8652 28.9551C31.123 30.2539 30.332 31.5137 29.502 32.7637C28.0469 32.8711 26.5332 32.9199 25 32.9199C23.4668 32.9199 21.9824 32.8711 20.5469 32.7832C19.6973 31.543 18.8965 30.2734 18.1445 28.9746C17.3926 27.6758 16.6992 26.3574 16.0449 25.0098ZM33.6816 30.0098C34.1797 29.1504 34.6484 28.2813 35.1074 27.4023C35.7324 28.8184 36.2793 30.2539 36.7578 31.7285C35.2441 32.0703 33.7109 32.334 32.168 32.5098C32.6953 31.6895 33.1934 30.8496 33.6816 30.0098ZM35.0879 22.5391C34.6289 21.6797 34.1602 20.8203 33.6719 19.9805C33.1934 19.1504 32.6953 18.3301 32.1777 17.5195C33.75 17.7148 35.2539 17.9785 36.6602 18.3008C36.2109 19.7461 35.6836 21.1523 35.0879 22.5391V22.5391ZM25.0195 11.5527C26.0449 12.666 27.0117 13.8379 27.9102 15.0488C25.9766 14.9609 24.0332 14.9609 22.0996 15.0488C23.0566 13.7891 24.043 12.6172 25.0195 11.5527ZM13.6914 5.56641C15.332 4.60937 18.9746 5.97656 22.8125 9.375C23.0566 9.58984 23.3008 9.82422 23.5547 10.0586C22.041 11.6895 20.6445 13.4277 19.3652 15.2441C17.1582 15.4395 14.9707 15.7812 12.8027 16.2598C12.6758 15.7617 12.5684 15.2539 12.4609 14.7461C11.543 10.0195 12.1484 6.45508 13.6914 5.56641V5.56641ZM11.2988 31.3086C10.8887 31.1914 10.4883 31.0645 10.0879 30.9277C8.00781 30.2734 5.64453 29.2383 3.93555 27.8809C2.94922 27.1973 2.28516 26.1426 2.09961 24.9609C2.09961 23.1738 5.18555 20.8887 9.63867 19.3359C10.1953 19.1406 10.7617 18.9648 11.3281 18.7988C11.9922 20.918 12.793 22.998 13.7207 25.0098C12.7832 27.0508 11.9727 29.1602 11.2988 31.3086V31.3086ZM22.6855 40.8789C21.0742 42.3535 19.209 43.5254 17.1777 44.3262C16.0937 44.8438 14.8438 44.8926 13.7305 44.4531C12.1777 43.5547 11.5332 40.1074 12.4121 35.4688C12.5195 34.9219 12.6367 34.375 12.7734 33.8379C14.9609 34.3066 17.168 34.6289 19.4043 34.7949C20.6934 36.6211 22.1094 38.3691 23.623 40.0098C23.3105 40.3125 22.998 40.6055 22.6855 40.8789ZM25.0781 38.5059C24.082 37.4316 23.0859 36.2402 22.1191 34.9609C23.0566 35 24.0234 35.0195 25 35.0195C26.0059 35.0195 26.9922 35 27.9687 34.9512C27.0703 36.1914 26.1035 37.373 25.0781 38.5059V38.5059ZM37.8418 41.4355C37.7539 42.627 37.168 43.7402 36.2305 44.4922C34.6777 45.3906 31.3672 44.2188 27.793 41.1523C27.3828 40.8008 26.9727 40.4199 26.5527 40.0293C28.0469 38.3789 29.4238 36.6309 30.6738 34.7949C32.9102 34.6094 35.1367 34.2676 37.334 33.7695C37.4316 34.1699 37.5195 34.5703 37.5977 34.9609C38.0762 37.0703 38.1543 39.2676 37.8418 41.4355V41.4355ZM39.6191 30.9375C39.3457 31.0254 39.0723 31.1133 38.7891 31.1914C38.1055 29.0625 37.2656 26.9824 36.2988 24.9609C37.2363 22.9688 38.0273 20.918 38.6914 18.8184C39.1992 18.9648 39.6875 19.1211 40.1563 19.2773C44.707 20.8398 47.9004 23.1641 47.9004 24.9414C47.9004 26.8555 44.4922 29.3262 39.6191 30.9375ZM25 29.4727C27.4707 29.4727 29.4727 27.4707 29.4727 25C29.4727 22.5293 27.4707 20.5273 25 20.5273C22.5293 20.5273 20.5273 22.5293 20.5273 25C20.5273 27.4707 22.5293 29.4727 25 29.4727Z" fill="#23D997"/>
</svg>
