<svg width="526" height="331" viewBox="0 0 526 331" fill="none" xmlns="http://www.w3.org/2000/svg">
<path d="M198.907 207.992C198.689 207.768 193.513 202.367 189.125 189.551C185.1 177.793 181.038 157.289 184.548 126.379C191.198 67.8212 157.1 30.5024 156.754 30.1322L157.764 29.1335C157.851 29.2273 166.618 38.7237 174.418 55.395C184.743 77.5018 188.739 102.183 185.938 126.546C179.3 185.004 199.687 206.757 199.894 206.97L198.907 207.992Z" fill="#F2F2F2"/>
<path d="M146.284 29.151C151.306 29.151 155.378 24.956 155.378 19.7812C155.378 14.6063 151.306 10.4113 146.284 10.4113C141.263 10.4113 137.191 14.6063 137.191 19.7812C137.191 24.956 141.263 29.151 146.284 29.151Z" fill="#23D997"/>
<path d="M182.108 55.7507C187.13 55.7507 191.201 51.5556 191.201 46.3808C191.201 41.206 187.13 37.011 182.108 37.011C177.086 37.011 173.015 41.206 173.015 46.3808C173.015 51.5556 177.086 55.7507 182.108 55.7507Z" fill="#D96ED4"/>
<path d="M168.391 82.9436C173.413 82.9436 177.484 78.7485 177.484 73.5737C177.484 68.3989 173.413 64.2039 168.391 64.2039C163.369 64.2039 159.298 68.3989 159.298 73.5737C159.298 78.7485 163.369 82.9436 168.391 82.9436Z" fill="#F2F2F2"/>
<path d="M195.974 96.036C200.996 96.036 205.067 91.841 205.067 86.6661C205.067 81.4913 200.996 77.2963 195.974 77.2963C190.952 77.2963 186.881 81.4913 186.881 86.6661C186.881 91.841 190.952 96.036 195.974 96.036Z" fill="#F2F2F2"/>
<path d="M173.044 132.966C178.066 132.966 182.137 128.771 182.137 123.596C182.137 118.421 178.066 114.226 173.044 114.226C168.022 114.226 163.951 118.421 163.951 123.596C163.951 128.771 168.022 132.966 173.044 132.966Z" fill="#F2F2F2"/>
<path d="M204.323 206.984C204.323 206.984 190.18 186.801 212.699 163.329L204.323 206.984Z" fill="#F2F2F2"/>
<path d="M193.363 209.311C193.363 209.311 183.696 186.495 152.629 194.528L193.363 209.311Z" fill="#F2F2F2"/>
<path d="M370.271 281.071C370.233 280.598 369.421 269.27 376.489 250.282C382.974 232.861 397.651 205.439 430.754 173.73C493.464 113.66 489.752 37.0527 489.707 36.2853L491.797 36.1564C491.808 36.3509 492.856 55.9351 486.046 82.7275C476.995 118.237 458.31 150.353 432.179 175.31C369.576 235.278 372.323 280.444 372.357 280.894L370.271 281.071Z" fill="#F2F2F2"/>
<path d="M487.524 28.0463C495.039 28.0463 501.131 21.7686 501.131 14.0246C501.131 6.28067 495.039 0.00296021 487.524 0.00296021C480.009 0.00296021 473.916 6.28067 473.916 14.0246C473.916 21.7686 480.009 28.0463 487.524 28.0463Z" fill="#D96ED4"/>
<path d="M503.295 94.1665C510.81 94.1665 516.902 87.8888 516.902 80.1448C516.902 72.4009 510.81 66.1232 503.295 66.1232C495.779 66.1232 489.687 72.4009 489.687 80.1448C489.687 87.8888 495.779 94.1665 503.295 94.1665Z" fill="#23D997"/>
<path d="M462.063 111.435C469.578 111.435 475.67 105.158 475.67 97.4138C475.67 89.6699 469.578 83.3922 462.063 83.3922C454.548 83.3922 448.455 89.6699 448.455 97.4138C448.455 105.158 454.548 111.435 462.063 111.435Z" fill="#282828"/>
<path d="M481.162 153.928C488.677 153.928 494.77 147.65 494.77 139.906C494.77 132.162 488.677 125.884 481.162 125.884C473.647 125.884 467.555 132.162 467.555 139.906C467.555 147.65 473.647 153.928 481.162 153.928Z" fill="#D96ED4"/>
<path d="M420.266 173.08C427.781 173.08 433.873 166.803 433.873 159.059C433.873 151.315 427.781 145.037 420.266 145.037C412.75 145.037 406.658 151.315 406.658 159.059C406.658 166.803 412.75 173.08 420.266 173.08Z" fill="white"/>
<path d="M377.39 285.337C377.39 285.337 380.28 248.202 428.037 243.972L377.39 285.337Z" fill="#F2F2F2"/>
<path d="M362.712 277.031C362.712 277.031 373.181 241.373 330.22 219.466L362.712 277.031Z" fill="#F2F2F2"/>
<path d="M65.7067 245.562C61.1707 262.841 45.6338 273.541 45.6338 273.541C45.6338 273.541 37.4513 256.229 41.9873 238.95C46.5233 221.672 62.0602 210.971 62.0602 210.971C62.0602 210.971 70.2427 228.284 65.7067 245.562Z" fill="#282828"/>
<path d="M24.4416 245.562C28.9777 262.841 44.5145 273.541 44.5145 273.541C44.5145 273.541 52.6971 256.229 48.161 238.95C43.625 221.672 28.0882 210.971 28.0882 210.971C28.0882 210.971 19.9056 228.284 24.4416 245.562Z" fill="#D96ED4"/>
<path d="M31.107 241.849C43.5538 254.334 45.0741 273.527 45.0741 273.527C45.0741 273.527 26.4141 272.477 13.9672 259.992C1.52029 247.507 0 228.314 0 228.314C0 228.314 18.6601 229.364 31.107 241.849Z" fill="#3F3D56"/>
<path d="M59.0413 241.849C46.5945 254.334 45.0742 273.527 45.0742 273.527C45.0742 273.527 63.7342 272.477 76.1811 259.992C88.628 247.507 90.1483 228.314 90.1483 228.314C90.1483 228.314 71.4882 229.364 59.0413 241.849Z" fill="#3F3D56"/>
<path d="M526 310.667H4.59747V311.916H526V310.667Z" fill="#2F2E41"/>
<path d="M279.801 118.773C279.801 118.773 274.39 113.197 261.943 114.312C261.943 114.312 141.808 101.487 139.103 124.349C136.397 147.212 135.856 160.595 142.891 165.613C142.891 165.613 165.889 187.082 153.984 206.041L147.49 217.193L402.372 214.963C402.372 214.963 405.077 174.256 413.195 166.45C421.312 158.643 424.018 117.379 413.195 116.264C402.372 115.149 276.825 109.015 279.801 118.773Z" fill="#3F3D56"/>
<path d="M145.326 164.219C145.326 164.219 69.0237 182.621 99.3281 217.193L104.198 222.212L102.034 299.163H453.781L457.569 223.885L461.898 214.963C461.898 214.963 488.858 181.645 410.981 169.586L396.96 206.041L159.937 204.368C159.937 204.368 158.313 163.104 145.326 164.219Z" fill="#3F3D56"/>
<path d="M130.715 294.145H108.528V311.431H130.715V294.145Z" fill="#3F3D56"/>
<path d="M449.993 294.145H427.806V311.431H449.993V294.145Z" fill="#3F3D56"/>
<path d="M275.685 206.319C275.685 206.319 222.71 167.565 156.69 206.598L137.209 235.595L140.997 259.572C140.997 259.572 277.907 261.803 279.531 246.747C281.154 231.691 275.685 206.319 275.685 206.319Z" fill="#3F3D56"/>
<path d="M399.666 206.598C399.666 206.598 306.722 175.929 278.786 206.598L282.237 250.65C282.237 250.65 418.065 261.245 420.23 253.996C422.394 246.747 423.477 233.922 423.477 233.922L399.666 206.598Z" fill="#3F3D56"/>
<path opacity="0.1" d="M399.666 206.598C399.666 206.598 306.722 175.929 278.786 206.598L278.863 207.581C278.771 207.125 278.719 206.877 278.719 206.877C278.719 206.877 222.71 167.565 156.69 206.598L137.209 235.595L140.997 259.572C140.997 259.572 273.57 262.478 282.087 248.741L282.237 250.65C282.237 250.65 418.065 261.245 420.23 253.996C422.394 246.747 423.477 233.922 423.477 233.922L399.666 206.598Z" fill="black"/>
<path d="M147.49 129.647C173.792 129.07 198.726 125.631 221.628 117.937C222.185 145.082 225.973 170.47 234.615 193.215C209.011 188.421 183.025 193.165 156.69 206.598C161.42 182.06 157.331 156.263 147.49 129.647Z" fill="#23D997"/>
<path d="M416.442 134.108C390.14 133.531 365.206 130.092 342.304 122.398C341.747 149.543 337.959 174.931 329.317 197.676C354.921 192.882 380.907 197.626 407.242 211.059C402.512 186.521 406.601 160.724 416.442 134.108Z" fill="#23D997"/>
<path d="M247.534 126.984C249.066 125.86 250.757 124.987 252.547 124.393C263.896 120.042 275.789 117.374 287.867 116.471C298.369 115.703 309.752 116.615 317.954 123.416C319.23 124.381 320.274 125.634 321.006 127.08C322.038 129.375 321.726 132.042 321.392 134.548C321.317 135.52 321.079 136.471 320.689 137.359C319.585 139.525 316.867 140.284 314.507 140.024C312.146 139.764 309.931 138.735 307.603 138.258C306.162 137.999 304.705 137.846 303.243 137.8L288.64 136.986C279.559 136.479 270.359 135.981 261.452 137.869C258.71 138.377 256.06 139.318 253.597 140.659C251.562 141.836 250.193 143.524 248.305 141.351C244.988 137.531 243.153 130.512 247.534 126.984Z" fill="#2F2E41"/>
<path d="M270.162 133.638C270.162 133.638 289.803 124.565 297.253 135.034C304.704 145.502 293.19 141.315 293.19 141.315L280.321 145.502L266.098 142.711L270.162 133.638Z" fill="#F2F2F2"/>
<path d="M271.178 127.008C271.178 127.008 273.887 140.268 271.855 143.757C269.823 147.247 283.369 152.132 283.369 152.132L296.237 146.549C296.237 146.549 292.851 124.914 296.237 120.727L271.178 127.008Z" fill="#FFB9B9"/>
<path opacity="0.1" d="M271.178 127.008C271.178 127.008 273.887 140.268 271.855 143.757C269.823 147.247 283.369 152.132 283.369 152.132L296.237 146.549C296.237 146.549 292.851 124.914 296.237 120.727L271.178 127.008Z" fill="black"/>
<path d="M258.487 286.451C260.425 290.279 261.681 294.426 262.963 298.537C262.982 298.674 263.028 298.806 263.1 298.923C263.172 299.04 263.267 299.14 263.379 299.217C263.491 299.293 263.617 299.345 263.75 299.368C263.882 299.391 264.018 299.384 264.148 299.349L276.195 299.336C277.682 299.334 279.676 298.842 279.661 297.31C279.65 296.234 278.582 295.562 277.788 294.864C275.582 292.925 275.008 289.728 274.095 286.893C272.32 281.431 268.898 276.696 264.33 273.378C263.712 272.88 263.001 272.518 262.242 272.315C261.479 272.201 260.701 272.244 259.953 272.443C257.839 272.882 249.941 274.386 251.433 277.556C252.076 278.921 254.456 280.342 255.454 281.616C256.617 283.121 257.633 284.74 258.487 286.451V286.451Z" fill="#575A89"/>
<path d="M300.379 272.054C299.954 272.973 299.482 273.869 298.963 274.736C297.218 277.702 295.158 280.469 293.533 283.507C292.519 285.402 291.666 287.45 291.553 289.61C291.441 291.771 292.18 294.07 293.853 295.378C295.601 296.746 297.999 296.809 300.172 296.49C302.346 296.172 304.507 295.53 306.696 295.699C305.958 291.395 309.48 287.607 310.361 283.332C310.609 282.131 310.646 280.886 310.977 279.707C311.334 278.629 311.791 277.588 312.341 276.6C314.095 273.08 315.335 269.313 316.02 265.419C316.103 264.947 305.311 264.87 304.299 265.095C301.14 265.799 301.602 269.354 300.379 272.054Z" fill="#575A89"/>
<path d="M217.202 204.439C214.121 209.406 214.831 215.99 216.994 221.448C219.158 226.905 222.602 231.73 224.959 237.102C226.462 240.527 227.515 244.158 229.208 247.487C231.303 251.611 234.362 255.245 235.768 259.668C236.664 262.487 236.87 265.577 238.322 268.139C239.199 269.508 240.201 270.789 241.313 271.963C244.44 275.655 246.788 279.976 248.208 284.653C249.535 280.58 253.508 277.909 257.589 277.028C261.67 276.147 265.899 276.746 270.028 277.347C267.725 273.67 265.399 269.947 264.026 265.806C262.699 261.801 262.307 257.54 261.412 253.41C259.578 244.939 255.66 237.126 251.781 229.423L271.718 227.793C274.973 227.456 278.244 227.331 281.514 227.419C286.66 227.669 291.701 228.969 296.82 229.569C301.938 230.17 307.353 230.013 311.915 227.546C303.192 240.442 298.649 255.85 298.936 271.566C300.886 270.009 303.148 268.922 305.558 268.383C307.968 267.844 310.465 267.867 312.865 268.451C315.266 269.034 317.509 270.164 319.431 271.756C321.353 273.349 322.905 275.364 323.973 277.654C331.787 266.653 330.858 251.336 337.049 239.288C338.322 236.811 339.882 234.503 341.256 232.083C343.974 227.298 345.944 222.11 347.904 216.946C349.636 212.382 351.38 207.303 349.719 202.711C349.029 200.969 348.025 199.377 346.759 198.021C343.187 193.963 338.215 190.961 332.9 190.836C324.74 190.644 317.999 196.877 310.841 200.918C302.41 205.678 292.574 207.571 282.984 206.871C273.152 206.154 263.761 202.837 254.394 199.916C249.708 198.387 244.945 197.121 240.125 196.124C236.108 195.347 232.283 196.207 228.324 197.266C224.014 198.418 219.682 200.439 217.202 204.439Z" fill="#2F2E41"/>
<path d="M302.333 113.748C302.329 119.299 300.187 124.622 296.377 128.547C292.568 132.473 287.402 134.68 282.015 134.685C280.804 134.687 279.596 134.575 278.405 134.35C274.602 133.642 271.074 131.832 268.235 129.131C265.395 126.431 263.362 122.952 262.374 119.103C261.385 115.254 261.483 111.194 262.654 107.4C263.826 103.605 266.023 100.234 268.988 97.681C271.953 95.128 275.563 93.4993 279.395 92.9858C283.227 92.4723 287.121 93.0954 290.622 94.7819C294.122 96.4685 297.083 99.1486 299.157 102.508C301.231 105.867 302.333 109.766 302.333 113.748V113.748Z" fill="#FFB9B9"/>
<path d="M270.162 133.638C270.162 133.638 273.887 135.383 275.242 136.778C276.596 138.174 280.66 145.851 287.433 140.966C294.206 136.081 294.883 133.289 296.915 133.289C298.947 133.289 301.656 137.476 301.656 137.476L320.281 195.053C315.261 200.892 309.443 205.946 303.01 210.058C292.174 217.037 279.305 220.526 273.21 217.735C267.114 214.943 255.601 212.849 253.569 207.266C251.537 201.683 248.15 184.933 248.15 184.933L257.632 142.362L270.162 133.638Z" fill="#F2F2F2"/>
<path d="M267.547 191.869C269.024 188.583 269.238 184.863 269.363 181.243C269.562 177.659 269.47 174.063 269.088 170.494C268.487 165.826 267.012 161.328 266.08 156.718C265.264 152.674 264.867 148.553 264.896 144.423C264.91 142.538 265.042 140.555 266.039 138.974C266.734 137.872 267.821 137.018 268.256 135.782C269.108 133.358 267.003 130.82 264.696 129.822C261.952 128.634 258.816 128.714 255.929 129.459C253.042 130.204 250.349 131.575 247.682 132.936C245.755 133.919 243.787 134.932 242.293 136.525C240.191 138.767 239.267 141.889 238.52 144.91C237.923 147.328 237.392 149.849 237.846 152.3C238.584 156.28 241.733 159.273 243.411 162.937C245.36 167.192 245.229 172.151 244.454 176.788C243.679 181.424 242.303 185.958 241.878 190.643C241.454 195.327 242.105 200.363 244.954 204.04C246.114 205.539 249.263 209.091 251.388 208.689C253.057 208.373 255.477 204.586 256.822 203.386C260.707 199.919 265.316 196.834 267.547 191.869Z" fill="#2F2E41"/>
<path d="M303.032 131.362C303.091 135.254 301.426 138.954 299.468 142.283C297.51 145.612 295.209 148.761 293.766 152.359C291.973 156.862 291.607 161.835 292.72 166.565C293.134 168.177 293.633 169.764 294.215 171.319L297.925 181.808C298.425 183.457 299.149 185.024 300.077 186.463C300.916 187.565 301.901 188.541 303.002 189.362C305.82 191.707 309.064 193.451 312.544 194.491C316.035 195.442 319.855 195.382 323.154 193.868C323.512 179.649 325.729 165.545 329.745 151.937C330.487 149.425 331.297 146.78 330.725 144.221C330.084 141.355 327.85 139.203 325.726 137.238C319.231 131.228 312.089 124.915 303.395 124.105C298.363 123.636 302.989 128.548 303.032 131.362Z" fill="#2F2E41"/>
<path d="M258.585 212.503C259.101 213.542 259.421 214.673 259.931 215.715C260.682 217.113 261.612 218.4 262.694 219.544C267.223 224.719 272.758 229.873 279.513 230.185C280.184 230.25 280.861 230.162 281.495 229.928C282.677 229.422 283.375 228.117 283.605 226.82C284.084 224.117 282.926 221.42 281.767 218.946C279.255 213.584 276.428 208.086 271.723 204.627C267.086 201.218 260.873 200.39 255.465 202.107C253.014 202.885 248.951 204.243 252.196 206.547C254.657 208.294 257.158 209.625 258.585 212.503Z" fill="#FFB9B9"/>
<path d="M262.649 296.957C260.629 299.784 261.034 303.826 259.246 306.814C257.695 309.404 254.773 310.761 252.834 313.056C252.215 313.819 251.664 314.636 251.186 315.5C249.387 318.605 247.925 322.584 249.696 325.706C251.122 328.217 254.117 329.198 256.865 329.867C260.337 330.712 263.946 331.389 267.458 330.743C270.971 330.097 274.404 327.881 275.656 324.438C275.903 323.572 276.195 322.721 276.533 321.889C278.437 318.026 284.409 317.985 286.357 314.146C287.721 311.46 286.467 308.213 285.214 305.47L281.388 297.092C280.118 294.312 274.969 295.911 272.285 295.245C268.785 294.376 265.167 293.418 262.649 296.957Z" fill="#2F2E41"/>
<path d="M292.249 289.76C290.625 290.933 289.575 292.773 288.786 294.648C286.892 299.15 286.242 304.086 285.61 308.95C285.357 310.898 285.105 312.893 285.501 314.816C286.317 318.788 289.81 321.713 293.57 322.928C297.33 324.142 301.362 323.955 305.298 323.756C306.562 323.693 307.876 323.615 308.985 322.985C310.962 321.861 311.735 319.219 311.396 316.918C311.057 314.617 309.837 312.57 308.643 310.595C307.449 308.619 306.228 306.573 305.886 304.272C305.31 300.403 306.934 294.722 304.627 291.221C302.314 287.713 295.334 287.531 292.249 289.76Z" fill="#2F2E41"/>
<path d="M301.822 102.837C301.461 101.585 300.664 100.514 299.585 99.8281C299.641 98.4869 299.481 97.1454 299.113 95.8577C297.882 92.1093 294.967 92.3241 292.217 90.6669C291.024 89.9479 291.098 89.3124 290.476 88.1314C289.662 86.5832 288.443 85.3015 286.957 84.4318C285.193 83.2733 283.33 82.0803 281.243 81.9337C276.856 81.6256 273.493 85.8772 269.3 87.2417C267.452 87.8431 265.466 87.8679 263.608 88.4365C261.751 89.0051 259.897 90.3627 259.62 92.3392C259.492 93.2517 259.718 94.1878 259.588 95.1C259.33 96.9132 257.787 98.183 256.753 99.6743C254.468 102.972 254.729 107.631 256.557 111.219C256.942 111.962 257.383 112.672 257.875 113.344C258.027 115.04 258.5 116.689 259.266 118.198C261.094 121.786 264.238 124.468 267.523 126.695C267.254 125.505 267.091 124.292 267.036 123.072C266.99 122.665 267.041 122.253 267.186 121.871C267.552 121.083 268.518 120.874 269.255 120.442C270.782 119.548 271.381 117.57 271.425 115.761C271.469 113.952 271.097 112.141 271.281 110.341C271.288 109.927 271.379 109.52 271.549 109.145C271.718 108.769 271.962 108.435 272.265 108.163C272.828 107.832 273.472 107.673 274.119 107.707C277.247 107.576 280.516 107.516 283.275 105.992C284.216 105.472 285.091 104.785 286.124 104.507C288.469 103.877 290.865 105.57 292.216 107.643C293.568 109.715 294.241 112.182 295.488 114.323C296.735 116.464 298.889 118.373 301.299 118.119C301.435 118.12 301.569 118.09 301.694 118.034C301.818 117.977 301.929 117.894 302.019 117.789C302.123 117.597 302.169 117.377 302.152 117.157L302.287 107.663C302.398 106.038 302.241 104.407 301.822 102.837V102.837Z" fill="#2F2E41"/>
<path d="M237.52 152.503C235.582 155.45 233.346 158.283 232.281 161.67C231.654 163.661 231.46 165.765 231.006 167.805C229.496 174.599 225.133 180.633 224.694 187.589C224.541 189.134 224.761 190.695 225.335 192.131C226.587 194.937 229.583 196.416 232.44 197.346C235.297 198.276 238.366 198.946 240.647 200.948C241.795 202.083 242.836 203.327 243.757 204.663C247.478 209.432 252.483 212.962 258.145 214.808C257.698 211.632 257.488 207.805 259.952 205.842C261.285 204.779 263.067 204.59 264.746 204.441L272.682 203.734C267.39 198.445 261.558 193.763 255.286 189.77C253.092 188.373 250.704 186.9 249.702 184.451C249.075 182.92 249.084 181.205 249.069 179.543C249.014 173.462 248.515 167.393 247.574 161.389C246.921 157.22 246.056 153.089 245.066 148.991C244.789 147.84 243.147 142.68 241.127 143.887C240.651 144.172 240.205 147.445 239.927 148.124C239.266 149.661 238.46 151.128 237.52 152.503V152.503Z" fill="#2F2E41"/>
<path opacity="0.1" d="M248.502 161.449C248.591 166.379 247.575 171.264 245.532 175.723C245.001 176.708 244.609 177.767 244.369 178.867C244.014 181.213 245.309 183.485 246.791 185.304C249.712 188.882 253.502 191.599 257.774 193.178" fill="black"/>
<path d="M299.063 136.441L299.541 136.519C299.122 136.45 298.748 136.214 298.499 135.861C298.25 135.508 298.147 135.067 298.213 134.636L303.155 102.464C303.221 102.033 303.451 101.647 303.794 101.39C304.136 101.134 304.564 101.028 304.982 101.096L304.504 101.018C304.836 101.072 305.155 101.194 305.443 101.375C305.73 101.556 305.979 101.794 306.177 102.075C306.375 102.355 306.518 102.674 306.596 103.011C306.675 103.348 306.688 103.699 306.636 104.041L301.996 134.244C301.944 134.587 301.826 134.915 301.65 135.211C301.474 135.507 301.243 135.764 300.971 135.968C300.699 136.172 300.39 136.319 300.062 136.4C299.735 136.481 299.395 136.495 299.063 136.441V136.441Z" fill="#2F2E41"/>
<path d="M304.335 100.992L305.059 101.11L299.618 136.532L298.893 136.414C298.771 136.394 298.654 136.349 298.548 136.283C298.442 136.216 298.35 136.128 298.278 136.025C298.205 135.922 298.152 135.805 298.123 135.68C298.094 135.556 298.09 135.428 298.109 135.301L303.255 101.8C303.275 101.674 303.318 101.553 303.383 101.444C303.447 101.335 303.532 101.24 303.632 101.165C303.733 101.09 303.846 101.036 303.967 101.006C304.087 100.977 304.212 100.972 304.335 100.992V100.992Z" fill="#6C63FF"/>
<path d="M304.43 105.684L304.291 105.661C304.241 105.653 304.195 105.688 304.187 105.739L303.772 108.443C303.764 108.494 303.798 108.542 303.847 108.55L303.986 108.573C304.036 108.581 304.082 108.546 304.09 108.495L304.506 105.791C304.513 105.74 304.48 105.692 304.43 105.684Z" fill="#464353"/>
<path d="M316.72 130.252C317.467 128.313 318.226 126.308 318.175 124.222C318.046 122.332 317.49 120.498 316.551 118.869C315.409 116.683 313.984 114.666 312.315 112.876C310.327 110.745 307.456 108.843 304.745 109.81C302.593 110.578 301.366 112.887 300.57 115.086C300.096 116.16 299.908 117.344 300.027 118.518C300.29 120.032 301.425 121.194 302.247 122.478C303.537 124.491 304.089 126.896 304.618 129.245L305.947 135.138L308.228 145.258C308.168 144.992 312.465 140.798 312.975 139.905C314.618 137.029 315.524 133.357 316.72 130.252Z" fill="#FFB9B9"/>
<path d="M328.92 141.366L332.16 148.311C333.722 151.166 334.432 154.433 334.204 157.702L334.396 178.534C334.422 181.318 334.442 184.144 333.731 186.83C333.529 187.726 333.149 188.57 332.613 189.307C332.064 189.942 331.416 190.479 330.697 190.898C324.564 194.846 316.61 197.091 310.13 193.782C308.646 192.967 307.235 192.017 305.914 190.946C303.331 188.975 300.711 186.966 298.779 184.319C296.757 181.55 306.055 171.013 304.694 167.844C302.257 162.165 303.606 148.699 299.824 143.866C299.274 143.163 304.276 143.796 304.257 142.893C304.216 141.067 308.466 138.427 310.106 137.732C312.906 136.545 316.131 134.124 316.6 131.041C322.555 139.088 305.832 163.404 315.23 166.345C315.377 166.442 315.548 166.496 315.722 166.502C315.897 166.507 316.07 166.464 316.223 166.376C316.376 166.289 316.503 166.16 316.591 166.004C316.678 165.849 316.724 165.671 316.722 165.491C317.255 163.191 317.444 160.823 317.834 158.492C318.55 154.249 319.928 150.153 321.915 146.364C323.028 144.24 326.632 136.464 328.92 141.366Z" fill="#2F2E41"/>
<path opacity="0.1" d="M318.873 157.294C318.395 158.617 318.829 160.081 319.197 161.44C320.263 165.384 320.761 169.469 320.674 173.562C320.69 173.634 320.688 173.708 320.668 173.779C320.649 173.849 320.613 173.914 320.563 173.966C320.513 174.019 320.452 174.057 320.384 174.079C320.316 174.101 320.244 174.105 320.174 174.091C318.61 174.19 316.821 174.2 315.76 173.012" fill="black"/>
<path d="M67.6709 310.594H22.7555L14.9425 283.149C14.4664 281.476 14.3751 279.712 14.6757 277.997C14.9764 276.282 15.6608 274.662 16.6747 273.267C17.6886 271.872 19.004 270.739 20.5167 269.959C22.0293 269.179 23.6976 268.773 25.3891 268.773H64.6813C66.3615 268.773 68.0189 269.174 69.5237 269.944C71.0286 270.714 72.34 271.832 73.3554 273.212C74.3707 274.591 75.0624 276.194 75.3764 277.895C75.6903 279.596 75.6179 281.349 75.1648 283.016L67.6709 310.594Z" fill="#3F3D56"/>
<path d="M90.3992 104.387C89.0078 104.387 87.6477 103.962 86.4908 103.165C85.3339 102.369 84.4322 101.237 83.8998 99.9121C83.3673 98.5875 83.228 97.13 83.4994 95.7238C83.7709 94.3176 84.4409 93.0259 85.4248 92.0121C86.4086 90.9983 87.6621 90.3079 89.0267 90.0282C90.3914 89.7485 91.8059 89.8921 93.0914 90.4407C94.3768 90.9894 95.4755 91.9185 96.2485 93.1106C97.0215 94.3027 97.4342 95.7043 97.4342 97.138C97.4321 99.0599 96.6902 100.903 95.3714 102.262C94.0525 103.621 92.2644 104.385 90.3992 104.387V104.387ZM90.3992 91.0042C89.2219 91.0042 88.071 91.3639 87.0921 92.0379C86.1132 92.7119 85.3502 93.6699 84.8997 94.7907C84.4491 95.9115 84.3313 97.1448 84.5609 98.3347C84.7906 99.5245 85.3575 100.617 86.19 101.475C87.0225 102.333 88.0832 102.917 89.2379 103.154C90.3926 103.391 91.5895 103.269 92.6772 102.805C93.7649 102.341 94.6946 101.554 95.3486 100.546C96.0027 99.5371 96.3519 98.3512 96.3519 97.138C96.3501 95.5118 95.7223 93.9527 94.6064 92.8028C93.4904 91.6528 91.9774 91.006 90.3992 91.0042Z" fill="#3F3D56"/>
<path d="M346.904 71.4875C345.513 71.4875 344.152 71.0623 342.995 70.2658C341.839 69.4692 340.937 68.3371 340.404 67.0125C339.872 65.6879 339.733 64.2304 340.004 62.8242C340.276 61.418 340.946 60.1263 341.929 59.1125C342.913 58.0987 344.167 57.4083 345.531 57.1286C346.896 56.8489 348.311 56.9925 349.596 57.5411C350.882 58.0898 351.98 59.0189 352.753 60.211C353.526 61.4031 353.939 62.8047 353.939 64.2384C353.937 66.1603 353.195 68.0029 351.876 69.3619C350.557 70.7209 348.769 71.4853 346.904 71.4875ZM346.904 58.1046C345.727 58.1046 344.576 58.4643 343.597 59.1383C342.618 59.8123 341.855 60.7703 341.404 61.8911C340.954 63.0119 340.836 64.2452 341.066 65.435C341.295 66.6249 341.862 67.7178 342.695 68.5757C343.527 69.4335 344.588 70.0177 345.743 70.2544C346.897 70.491 348.094 70.3696 349.182 69.9053C350.27 69.4411 351.199 68.6549 351.853 67.6462C352.507 66.6375 352.857 65.4516 352.857 64.2384C352.855 62.6122 352.227 61.0531 351.111 59.9032C349.995 58.7532 348.482 58.1064 346.904 58.1046V58.1046Z" fill="#3F3D56"/>
<path d="M231.639 18.9591H217.569V4.46096H231.639V18.9591ZM218.652 17.8438H230.557V5.5762H218.652V17.8438Z" fill="#3F3D56"/>
</svg>
